<svg viewBox="0 0 207 90" xmlns="http://www.w3.org/2000/svg">
  <path
    fill-rule="evenodd"
    clip-rule="evenodd"
    d="M72.5423 6.27678C75.8182 4.32523 77.7076 4.99589 78.4827 5.75883C79.3838 6.64567 80.1381 8.89914 78.7078 12.5357C78.3285 13.5002 77.966 14.3869 77.6488 15.1381C71.4951 28.4846 58.3534 56.7488 54.6503 63.8438C54.0115 65.0678 54.4859 66.578 55.7099 67.2168C56.9339 67.8557 58.4441 67.3813 59.0829 66.1573C62.8619 58.9168 76.0921 30.4561 82.2063 17.1949L82.2231 17.1586L82.2386 17.1217C82.5766 16.3223 82.9606 15.3835 83.3609 14.3658C85.1873 9.72209 84.878 5.03776 81.9901 2.19535C78.9763 -0.770976 74.3516 -0.621034 69.9833 1.98123C58.9524 8.55264 46.4016 21.7307 34.7274 36.2192C24.9045 37.2764 15.0655 39.4362 8.93493 41.1244C7.60376 41.491 6.8218 42.8672 7.18836 44.1984C7.55492 45.5296 8.9312 46.3115 10.2624 45.945C15.1554 44.5976 22.5344 42.9308 30.309 41.815C18.3711 57.232 7.50629 73.6409 0.361718 85.4429C-0.353309 86.6241 0.0245529 88.1612 1.2057 88.8762C2.38684 89.5913 3.92399 89.2134 4.63902 88.0323C12.0021 75.8693 23.3788 58.7327 35.7662 42.9469C36.2813 42.2905 36.7977 41.6369 37.3153 40.9867C41.5343 40.6039 45.6449 40.4609 49.3348 40.6794C53.5581 40.9295 57.0276 41.6432 59.4601 42.858C60.6953 43.475 62.1967 42.9737 62.8137 41.7385C63.4306 40.5033 62.9294 39.0018 61.6941 38.3849C58.3834 36.7314 54.1349 35.9549 49.6303 35.6881C47.0817 35.5372 44.3855 35.5463 41.6316 35.6753C52.2914 22.8393 63.1877 11.8496 72.5423 6.27678Z"
    fill="currentColor" />
  <path
    d="M97.55 44.05C97.3167 44.05 97.1 44.0167 96.9 43.95C96.2667 43.8167 95.8167 43.4333 95.55 42.8C95.35 42.2333 95.4 41.6 95.7 40.9C96.0333 40.2 96.4667 39.4167 97 38.55C97.2 38.25 97.3833 37.95 97.55 37.65C97.75 37.3167 97.9167 37.0167 98.05 36.75C98.1167 36.65 98.1667 36.5667 98.2 36.5C98.2333 36.4 98.2667 36.3167 98.3 36.25C97.3 36.0833 96.1333 36.05 94.8 36.15C93.5 36.2167 92.0333 36.4667 90.4 36.9C88.9667 37.2667 87.4167 37.75 85.75 38.35C84.1167 38.9167 82.3833 39.6 80.55 40.4C80.1833 40.5333 79.8167 40.5333 79.45 40.4C79.0833 40.2667 78.8167 40.0167 78.65 39.65C78.45 39.2833 78.4333 38.9 78.6 38.5C78.7667 38.0667 79.0333 37.7833 79.4 37.65C81.2667 36.8167 83.05 36.1 84.75 35.5C86.4833 34.8667 88.1167 34.3667 89.65 34C93.75 32.9667 97.1 32.8 99.7 33.5C100.467 33.7 101 34.1667 101.3 34.9C101.6 35.6333 101.533 36.45 101.1 37.35C100.667 38.25 100.15 39.1833 99.55 40.15C99.5167 40.2167 99.4667 40.3 99.4 40.4C99.3333 40.5 99.2667 40.6167 99.2 40.75C99.9667 40.5833 101.1 40.25 102.6 39.75C104.1 39.25 106.167 38.5167 108.8 37.55C109.167 37.4167 109.533 37.45 109.9 37.65C110.3 37.8167 110.567 38.1 110.7 38.5C110.867 38.8667 110.867 39.25 110.7 39.65C110.533 40.0167 110.233 40.2833 109.8 40.45C108.267 40.9833 106.867 41.4667 105.6 41.9C104.333 42.3333 103.2 42.7 102.2 43C100.867 43.4 99.85 43.6833 99.15 43.85C98.45 43.9833 97.9167 44.05 97.55 44.05ZM115.743 47.5C115.577 47.5 115.41 47.4833 115.243 47.45C115.077 47.45 114.893 47.4333 114.693 47.4C114.293 47.2667 113.96 46.9833 113.693 46.55C113.56 46.2833 113.493 45.9167 113.493 45.45C113.493 44.9833 113.643 44.2167 113.943 43.15C114.243 42.0833 114.727 40.5 115.393 38.4C114.66 38.6667 113.81 38.9833 112.843 39.35C111.91 39.7167 110.943 40.0833 109.943 40.45C109.577 40.5833 109.21 40.5667 108.843 40.4C108.443 40.2 108.16 39.9 107.993 39.5C107.86 39.1333 107.893 38.7667 108.093 38.4C108.26 38 108.543 37.7167 108.943 37.55C110.377 37.0167 111.71 36.5167 112.943 36.05C114.21 35.5833 115.243 35.2 116.043 34.9C116.843 34.6 117.243 34.45 117.243 34.45C117.577 34.3167 117.893 34.3 118.193 34.4C118.627 34.5 118.943 34.75 119.143 35.15C119.31 35.45 119.36 35.7167 119.293 35.95C119.26 36.1833 119.21 36.4333 119.143 36.7C119.077 36.8333 119.027 36.9833 118.993 37.15C118.96 37.2833 118.91 37.45 118.843 37.65C118.61 38.2167 118.36 38.9167 118.093 39.75C117.86 40.55 117.61 41.3667 117.343 42.2C117.177 42.6667 117.043 43.0667 116.943 43.4C116.843 43.7333 116.76 44.0333 116.693 44.3C117.327 44.1667 118.243 43.7833 119.443 43.15C120.477 42.5833 121.577 41.9333 122.743 41.2C123.943 40.4333 125.16 39.6333 126.393 38.8C126.66 38.6333 126.927 38.4667 127.193 38.3C127.493 38.1333 127.76 37.95 127.993 37.75C128.36 37.5167 128.743 37.45 129.143 37.55C129.577 37.6167 129.91 37.8333 130.143 38.2C130.377 38.5333 130.443 38.9 130.343 39.3C130.277 39.7 130.06 40.0167 129.693 40.25C129.427 40.45 129.143 40.65 128.843 40.85C128.577 41.0167 128.293 41.2 127.993 41.4C126.727 42.2333 125.493 43.0333 124.293 43.8C123.093 44.5667 121.96 45.2333 120.893 45.8C118.727 46.9333 117.01 47.5 115.743 47.5ZM140.326 44.55C139.926 44.55 139.592 44.4333 139.326 44.2C138.792 43.7667 138.642 43.2167 138.876 42.55C138.876 42.5167 138.992 42.1167 139.226 41.35C139.492 40.5833 139.792 39.7167 140.126 38.75C140.292 38.1833 140.442 37.7 140.576 37.3C140.709 36.8667 140.826 36.4833 140.926 36.15C140.026 36.4833 138.926 36.9 137.626 37.4C136.326 37.8667 134.959 38.3667 133.526 38.9C132.126 39.4333 130.759 39.95 129.426 40.45C129.059 40.5833 128.692 40.5667 128.326 40.4C127.926 40.2 127.642 39.9 127.476 39.5C127.342 39.1333 127.376 38.7667 127.576 38.4C127.742 38 128.026 37.7167 128.426 37.55C129.926 37.0167 131.476 36.4667 133.076 35.9C134.676 35.3 136.159 34.75 137.526 34.25C138.892 33.7167 140.009 33.2833 140.876 32.95C141.742 32.6167 142.176 32.45 142.176 32.45C142.342 32.4167 142.509 32.4 142.676 32.4C142.842 32.3667 142.992 32.3833 143.126 32.45C143.592 32.5167 143.926 32.7833 144.126 33.25C144.292 33.5167 144.359 33.8667 144.326 34.3C144.326 34.7 144.242 35.2833 144.076 36.05C143.976 36.4833 143.842 36.9667 143.676 37.5C143.542 38 143.359 38.5833 143.126 39.25C143.092 39.3833 143.059 39.5 143.026 39.6C142.992 39.7 142.959 39.8167 142.926 39.95C144.259 39.2167 145.892 38.45 147.826 37.65C148.192 37.4833 148.559 37.4833 148.926 37.65C149.326 37.7833 149.592 38.0333 149.726 38.4C149.926 38.7667 149.942 39.15 149.776 39.55C149.609 39.95 149.342 40.2333 148.976 40.4C147.476 41.0667 146.126 41.7 144.926 42.3C143.759 42.9 142.826 43.3833 142.126 43.75C141.426 44.1167 141.076 44.3 141.076 44.3C140.876 44.4667 140.626 44.55 140.326 44.55ZM155.009 43.05C154.843 43.05 154.709 43.0333 154.609 43C154.076 42.8667 153.693 42.6667 153.459 42.4C153.259 42.1 153.126 41.8667 153.059 41.7C152.826 40.9667 152.909 40.2167 153.309 39.45C153.709 38.65 154.226 37.8167 154.859 36.95C155.059 36.6833 155.243 36.4 155.409 36.1C155.609 35.7667 155.776 35.4833 155.909 35.25C155.943 35.2167 155.993 35.15 156.059 35.05C155.859 35.1167 155.609 35.2167 155.309 35.35C155.043 35.4833 154.726 35.6833 154.359 35.95C153.759 36.3167 153.126 36.8 152.459 37.4C151.793 37.9667 151.109 38.5667 150.409 39.2C150.243 39.3333 150.059 39.4833 149.859 39.65C149.693 39.8167 149.526 39.9833 149.359 40.15C149.059 40.4167 148.709 40.55 148.309 40.55C147.876 40.5167 147.526 40.3333 147.259 40C146.959 39.7 146.826 39.35 146.859 38.95C146.893 38.5167 147.059 38.1667 147.359 37.9C147.526 37.7333 147.709 37.5667 147.909 37.4C148.076 37.2333 148.243 37.0833 148.409 36.95C149.476 35.9833 150.526 35.1 151.559 34.3C152.593 33.4667 153.609 32.8333 154.609 32.4C155.609 31.9667 156.576 31.8833 157.509 32.15C158.076 32.2833 158.476 32.5167 158.709 32.85C158.976 33.15 159.126 33.4167 159.159 33.65C159.459 34.3833 159.393 35.1667 158.959 36C158.526 36.8 157.976 37.6833 157.309 38.65C157.243 38.7167 157.159 38.8333 157.059 39C156.993 39.1333 156.909 39.2667 156.809 39.4C157.309 39.2 157.959 38.95 158.759 38.65C159.559 38.35 160.526 37.9833 161.659 37.55C162.093 37.4167 162.493 37.45 162.859 37.65C163.226 37.8167 163.476 38.1 163.609 38.5C163.776 38.8667 163.759 39.25 163.559 39.65C163.393 40.0167 163.126 40.2833 162.759 40.45C161.693 40.8167 160.726 41.15 159.859 41.45C158.993 41.75 158.259 42.0167 157.659 42.25C157.326 42.3833 157.026 42.5 156.759 42.6C156.526 42.6667 156.309 42.7333 156.109 42.8C155.876 42.8667 155.676 42.9333 155.509 43C155.343 43.0333 155.176 43.05 155.009 43.05Z"
    fill="currentColor" />
  <path
    d="M75.4311 56.2128C78.514 56.2128 80.8263 56.4492 82.3678 56.9221C83.0668 57.1428 83.8107 57.458 84.5993 57.8679C85.388 58.2777 86.0243 58.7663 86.5083 59.3338C87.0102 59.9013 87.4224 60.6263 87.745 61.509C88.0856 62.3917 88.2559 63.3848 88.2559 64.4882C88.2559 65.5758 88.0856 66.561 87.745 67.4437C87.4224 68.3106 87.0102 69.0278 86.5083 69.5953C86.0243 70.1627 85.4149 70.6592 84.68 71.0848C83.963 71.4947 83.2819 71.802 82.6366 72.007C81.9914 72.2119 81.2744 72.3774 80.4857 72.5035C79.4282 72.6769 78.3438 72.7636 77.2325 72.7636H70L70.0538 72.4798C70.95 72.4798 71.6042 72.3301 72.0165 72.0306C72.4646 71.6996 72.6886 70.1627 72.6886 67.42V61.5563C72.6886 59.8697 72.6259 58.7191 72.5004 58.1043C72.3929 57.4738 72.2316 57.0797 72.0165 56.9221C71.6042 56.6226 70.95 56.4729 70.0538 56.4729L70 56.2128H75.4311ZM75.5655 72.1961C75.7806 72.2119 76.2197 72.2198 76.8829 72.2198C77.5641 72.2198 78.2989 72.1567 79.0876 72.0306C79.8942 71.9045 80.7187 71.6681 81.5612 71.3213C82.4215 70.9587 83.1564 70.5016 83.7659 69.9499C84.3932 69.3982 84.904 68.6574 85.2984 67.7274C85.7106 66.7816 85.9168 65.7098 85.9168 64.5118C85.9168 63.2981 85.7196 62.2262 85.3253 61.2962C84.9309 60.3663 84.4201 59.6254 83.7927 59.0737C83.1654 58.5063 82.4305 58.0413 81.5881 57.6787C80.1003 57.064 78.4603 56.7566 76.6678 56.7566C75.8612 56.7566 75.1622 56.8039 74.5707 56.8985V67.7038C74.5707 69.4061 74.6245 70.5331 74.732 71.0848C74.8396 71.6365 75.1174 72.007 75.5655 72.1961Z" />
  <path
    d="M110.805 72.7636H97.254L97.3078 72.4798C98.204 72.4798 98.8582 72.3301 99.2705 72.0306C99.7186 71.6996 99.9427 70.1627 99.9427 67.42V61.5563C99.9427 59.8697 99.8799 58.7191 99.7545 58.1043C99.6469 57.4738 99.4856 57.0797 99.2705 56.9221C98.8582 56.6226 98.204 56.4729 97.3078 56.4729L97.254 56.2128H109.81V59.6175L109.487 59.5702C109.487 58.5141 108.851 57.7812 107.578 57.3713C106.324 56.9615 104.397 56.7566 101.798 56.7566V64.2045C103.519 64.2045 104.755 64.1256 105.508 63.968C106.261 63.8104 106.745 63.5739 106.96 63.2587C107.175 62.9277 107.283 62.3839 107.283 61.6273L107.578 61.58V67.3255L107.283 67.2782C107.283 66.5058 107.175 65.962 106.96 65.6467C106.745 65.3315 106.261 65.1029 105.508 64.9611C104.755 64.8034 103.519 64.7246 101.798 64.7246V67.7747C101.798 69.4455 101.861 70.5568 101.986 71.1085C102.129 71.6602 102.434 72.0306 102.9 72.2198C107.955 72.2198 110.482 71.274 110.482 69.3825L110.805 69.3352V72.7636Z" />
  <path
    d="M121.404 67.751C121.404 69.28 121.825 70.4465 122.667 71.2503C123.528 72.0542 124.576 72.4562 125.813 72.4562C127.05 72.4562 128.063 72.1961 128.851 71.6759C129.64 71.14 130.034 70.3046 130.034 69.1697C130.034 68.1451 129.416 67.2309 128.179 66.427C127.641 66.0802 127.041 65.7413 126.378 65.4103C125.715 65.0635 125.051 64.7089 124.388 64.3463C123.725 63.9838 123.124 63.6055 122.587 63.2114C121.35 62.2972 120.732 61.2332 120.732 60.0195C120.732 58.79 121.233 57.8127 122.237 57.0876C123.259 56.3625 124.603 56 126.27 56C127.955 56 129.514 56.3231 130.948 56.9694C130.948 57.7575 130.814 59.1131 130.545 61.0362L130.142 60.9416C130.142 59.4599 129.73 58.3565 128.905 57.6314C128.081 56.8906 127.131 56.5202 126.055 56.5202C124.998 56.5202 124.146 56.796 123.501 57.3477C122.856 57.8836 122.533 58.522 122.533 59.2629C122.533 60.0037 122.757 60.6421 123.205 61.178C123.671 61.6982 124.245 62.1317 124.926 62.4784C125.625 62.8252 126.378 63.2114 127.184 63.637C127.991 64.0468 128.735 64.4567 129.416 64.8665C130.115 65.2605 130.688 65.7807 131.137 66.427C131.603 67.0733 131.836 67.7983 131.836 68.6022C131.836 70.0524 131.244 71.1479 130.061 71.8887C128.896 72.6296 127.489 73 125.84 73C124.926 73 123.985 72.8739 123.017 72.6217C122.067 72.3695 121.287 71.9991 120.678 71.5104C120.678 70.5016 120.785 69.2249 121 67.6801L121.404 67.751Z" />
  <path
    d="M145.962 61.5563V67.42C145.962 69.1066 146.015 70.2573 146.123 70.872C146.248 71.4868 146.419 71.873 146.634 72.0306C147.046 72.3301 147.7 72.4798 148.596 72.4798L148.65 72.7636H141.391L141.445 72.4798C141.893 72.4798 142.242 72.4641 142.493 72.4325C142.744 72.401 142.977 72.3143 143.192 72.1725C143.425 72.0306 143.587 71.873 143.676 71.6996C143.784 71.5104 143.873 71.2031 143.945 70.7775C144.035 70.2258 144.079 69.1066 144.079 67.42V61.5563C144.079 59.917 144.026 58.7742 143.918 58.128C143.811 57.4817 143.649 57.0797 143.434 56.9221C143.004 56.6226 142.341 56.4729 141.445 56.4729L141.391 56.2128H148.65L148.596 56.4729C147.7 56.4729 147.046 56.6226 146.634 56.9221C146.186 57.2531 145.962 58.7979 145.962 61.5563Z" />
  <path
    d="M174.706 68.3421V71.274C173.81 71.7626 172.726 72.1725 171.453 72.5035C170.198 72.8345 168.917 73 167.608 73C164.758 73 162.455 72.1882 160.698 70.5647C158.942 68.9411 158.064 66.9156 158.064 64.4882C158.064 62.0607 158.906 60.0431 160.591 58.4353C162.294 56.8118 164.579 56 167.447 56C168.702 56 169.965 56.1576 171.238 56.4729C172.511 56.7724 173.452 57.0955 174.061 57.4423V60.4687L173.765 60.4214C173.568 59.1604 172.869 58.1989 171.668 57.5369C170.467 56.8748 169.06 56.5438 167.447 56.5438C165.153 56.5438 163.405 57.2689 162.204 58.7191C161.003 60.1692 160.403 62.0923 160.403 64.4882C160.403 66.8683 161.03 68.7914 162.285 70.2573C163.539 71.7232 165.359 72.4562 167.743 72.4562C170.145 72.4562 171.838 71.7942 172.824 70.4701V68.6259C172.824 66.8762 172.708 65.8044 172.475 65.4103C172.26 65.0005 171.614 64.7956 170.539 64.7956L170.485 64.5591H177.072L177.019 64.7956C175.997 64.7956 175.352 65.0083 175.083 65.4339C174.832 65.8595 174.706 66.8289 174.706 68.3421Z" />
  <path
    d="M203.016 61.5327V72.8818H202.182L189.519 58.8136V67.3727C189.519 68.949 189.599 70.0839 189.761 70.7775C189.922 71.471 190.191 71.9281 190.567 72.1488C190.944 72.3695 191.562 72.4798 192.422 72.4798L192.476 72.7636H185.862L185.916 72.4798C186.776 72.4798 187.395 72.3695 187.771 72.1488C188.147 71.9281 188.416 71.471 188.578 70.7775C188.757 70.0839 188.846 68.949 188.846 67.3727V61.5327C188.846 59.9564 188.757 58.8294 188.578 58.1516C188.416 57.458 188.147 57.0088 187.771 56.8039C187.413 56.5832 186.794 56.4729 185.916 56.4729L185.862 56.2128H189.519L202.343 70.2809V61.5327C202.343 59.9722 202.254 58.8452 202.075 58.1516C201.913 57.458 201.644 57.0088 201.268 56.8039C200.892 56.5832 200.264 56.4729 199.386 56.4729L199.332 56.2128H206L205.946 56.4729C205.068 56.4729 204.441 56.5832 204.064 56.8039C203.688 57.0088 203.419 57.458 203.258 58.1516C203.096 58.8452 203.016 59.9722 203.016 61.5327Z" />
  <path
    d="M75.4311 56.2128C78.514 56.2128 80.8263 56.4492 82.3678 56.9221C83.0668 57.1428 83.8107 57.458 84.5993 57.8679C85.388 58.2777 86.0243 58.7663 86.5083 59.3338C87.0102 59.9013 87.4224 60.6263 87.745 61.509C88.0856 62.3917 88.2559 63.3848 88.2559 64.4882C88.2559 65.5758 88.0856 66.561 87.745 67.4437C87.4224 68.3106 87.0102 69.0278 86.5083 69.5953C86.0243 70.1627 85.4149 70.6592 84.68 71.0848C83.963 71.4947 83.2819 71.802 82.6366 72.007C81.9914 72.2119 81.2744 72.3774 80.4857 72.5035C79.4282 72.6769 78.3438 72.7636 77.2325 72.7636H70L70.0538 72.4798C70.95 72.4798 71.6042 72.3301 72.0165 72.0306C72.4646 71.6996 72.6886 70.1627 72.6886 67.42V61.5563C72.6886 59.8697 72.6259 58.7191 72.5004 58.1043C72.3929 57.4738 72.2316 57.0797 72.0165 56.9221C71.6042 56.6226 70.95 56.4729 70.0538 56.4729L70 56.2128H75.4311ZM75.5655 72.1961C75.7806 72.2119 76.2197 72.2198 76.8829 72.2198C77.5641 72.2198 78.2989 72.1567 79.0876 72.0306C79.8942 71.9045 80.7187 71.6681 81.5612 71.3213C82.4215 70.9587 83.1564 70.5016 83.7659 69.9499C84.3932 69.3982 84.904 68.6574 85.2984 67.7274C85.7106 66.7816 85.9168 65.7098 85.9168 64.5118C85.9168 63.2981 85.7196 62.2262 85.3253 61.2962C84.9309 60.3663 84.4201 59.6254 83.7927 59.0737C83.1654 58.5063 82.4305 58.0413 81.5881 57.6787C80.1003 57.064 78.4603 56.7566 76.6678 56.7566C75.8612 56.7566 75.1622 56.8039 74.5707 56.8985V67.7038C74.5707 69.4061 74.6245 70.5331 74.732 71.0848C74.8396 71.6365 75.1174 72.007 75.5655 72.1961Z"
    fill="currentColor" />
  <path
    d="M110.805 72.7636H97.254L97.3078 72.4798C98.204 72.4798 98.8582 72.3301 99.2705 72.0306C99.7186 71.6996 99.9427 70.1627 99.9427 67.42V61.5563C99.9427 59.8697 99.8799 58.7191 99.7545 58.1043C99.6469 57.4738 99.4856 57.0797 99.2705 56.9221C98.8582 56.6226 98.204 56.4729 97.3078 56.4729L97.254 56.2128H109.81V59.6175L109.487 59.5702C109.487 58.5141 108.851 57.7812 107.578 57.3713C106.324 56.9615 104.397 56.7566 101.798 56.7566V64.2045C103.519 64.2045 104.755 64.1256 105.508 63.968C106.261 63.8104 106.745 63.5739 106.96 63.2587C107.175 62.9277 107.283 62.3839 107.283 61.6273L107.578 61.58V67.3255L107.283 67.2782C107.283 66.5058 107.175 65.962 106.96 65.6467C106.745 65.3315 106.261 65.1029 105.508 64.9611C104.755 64.8034 103.519 64.7246 101.798 64.7246V67.7747C101.798 69.4455 101.861 70.5568 101.986 71.1085C102.129 71.6602 102.434 72.0306 102.9 72.2198C107.955 72.2198 110.482 71.274 110.482 69.3825L110.805 69.3352V72.7636Z"
    fill="currentColor" />
  <path
    d="M121.404 67.751C121.404 69.28 121.825 70.4465 122.667 71.2503C123.528 72.0542 124.576 72.4562 125.813 72.4562C127.05 72.4562 128.063 72.1961 128.851 71.6759C129.64 71.14 130.034 70.3046 130.034 69.1697C130.034 68.1451 129.416 67.2309 128.179 66.427C127.641 66.0802 127.041 65.7413 126.378 65.4103C125.715 65.0635 125.051 64.7089 124.388 64.3463C123.725 63.9838 123.124 63.6055 122.587 63.2114C121.35 62.2972 120.732 61.2332 120.732 60.0195C120.732 58.79 121.233 57.8127 122.237 57.0876C123.259 56.3625 124.603 56 126.27 56C127.955 56 129.514 56.3231 130.948 56.9694C130.948 57.7575 130.814 59.1131 130.545 61.0362L130.142 60.9416C130.142 59.4599 129.73 58.3565 128.905 57.6314C128.081 56.8906 127.131 56.5202 126.055 56.5202C124.998 56.5202 124.146 56.796 123.501 57.3477C122.856 57.8836 122.533 58.522 122.533 59.2629C122.533 60.0037 122.757 60.6421 123.205 61.178C123.671 61.6982 124.245 62.1317 124.926 62.4784C125.625 62.8252 126.378 63.2114 127.184 63.637C127.991 64.0468 128.735 64.4567 129.416 64.8665C130.115 65.2605 130.688 65.7807 131.137 66.427C131.603 67.0733 131.836 67.7983 131.836 68.6022C131.836 70.0524 131.244 71.1479 130.061 71.8887C128.896 72.6296 127.489 73 125.84 73C124.926 73 123.985 72.8739 123.017 72.6217C122.067 72.3695 121.287 71.9991 120.678 71.5104C120.678 70.5016 120.785 69.2249 121 67.6801L121.404 67.751Z"
    fill="currentColor" />
  <path
    d="M145.962 61.5563V67.42C145.962 69.1066 146.015 70.2573 146.123 70.872C146.248 71.4868 146.419 71.873 146.634 72.0306C147.046 72.3301 147.7 72.4798 148.596 72.4798L148.65 72.7636H141.391L141.445 72.4798C141.893 72.4798 142.242 72.4641 142.493 72.4325C142.744 72.401 142.977 72.3143 143.192 72.1725C143.425 72.0306 143.587 71.873 143.676 71.6996C143.784 71.5104 143.873 71.2031 143.945 70.7775C144.035 70.2258 144.079 69.1066 144.079 67.42V61.5563C144.079 59.917 144.026 58.7742 143.918 58.128C143.811 57.4817 143.649 57.0797 143.434 56.9221C143.004 56.6226 142.341 56.4729 141.445 56.4729L141.391 56.2128H148.65L148.596 56.4729C147.7 56.4729 147.046 56.6226 146.634 56.9221C146.186 57.2531 145.962 58.7979 145.962 61.5563Z"
    fill="currentColor" />
  <path
    d="M174.706 68.3421V71.274C173.81 71.7626 172.726 72.1725 171.453 72.5035C170.198 72.8345 168.917 73 167.608 73C164.758 73 162.455 72.1882 160.698 70.5647C158.942 68.9411 158.064 66.9156 158.064 64.4882C158.064 62.0607 158.906 60.0431 160.591 58.4353C162.294 56.8118 164.579 56 167.447 56C168.702 56 169.965 56.1576 171.238 56.4729C172.511 56.7724 173.452 57.0955 174.061 57.4423V60.4687L173.765 60.4214C173.568 59.1604 172.869 58.1989 171.668 57.5369C170.467 56.8748 169.06 56.5438 167.447 56.5438C165.153 56.5438 163.405 57.2689 162.204 58.7191C161.003 60.1692 160.403 62.0923 160.403 64.4882C160.403 66.8683 161.03 68.7914 162.285 70.2573C163.539 71.7232 165.359 72.4562 167.743 72.4562C170.145 72.4562 171.838 71.7942 172.824 70.4701V68.6259C172.824 66.8762 172.708 65.8044 172.475 65.4103C172.26 65.0005 171.614 64.7956 170.539 64.7956L170.485 64.5591H177.072L177.019 64.7956C175.997 64.7956 175.352 65.0083 175.083 65.4339C174.832 65.8595 174.706 66.8289 174.706 68.3421Z"
    fill="currentColor" />
  <path
    d="M203.016 61.5327V72.8818H202.182L189.519 58.8136V67.3727C189.519 68.949 189.599 70.0839 189.761 70.7775C189.922 71.471 190.191 71.9281 190.567 72.1488C190.944 72.3695 191.562 72.4798 192.422 72.4798L192.476 72.7636H185.862L185.916 72.4798C186.776 72.4798 187.395 72.3695 187.771 72.1488C188.147 71.9281 188.416 71.471 188.578 70.7775C188.757 70.0839 188.846 68.949 188.846 67.3727V61.5327C188.846 59.9564 188.757 58.8294 188.578 58.1516C188.416 57.458 188.147 57.0088 187.771 56.8039C187.413 56.5832 186.794 56.4729 185.916 56.4729L185.862 56.2128H189.519L202.343 70.2809V61.5327C202.343 59.9722 202.254 58.8452 202.075 58.1516C201.913 57.458 201.644 57.0088 201.268 56.8039C200.892 56.5832 200.264 56.4729 199.386 56.4729L199.332 56.2128H206L205.946 56.4729C205.068 56.4729 204.441 56.5832 204.064 56.8039C203.688 57.0088 203.419 57.458 203.258 58.1516C203.096 58.8452 203.016 59.9722 203.016 61.5327Z"
    fill="currentColor" />
</svg>
