<svg viewBox="0 0 310 246" fill="none" xmlns="http://www.w3.org/2000/svg">
<path d="M22.5957 -2C8.74584 16.7962 0.704047 34.6431 2.1716 58.3686C4.56173 97.009 35.359 117.07 70.9147 122.232C84.4039 124.19 98.4602 122.432 111.281 127.774C123.2 132.741 127.572 142.756 131.584 154.404C140.432 180.09 144.251 216.855 169.119 233.148C178.171 239.079 189.864 240.778 200.448 239.113C214.287 236.936 224.786 228.015 237.32 222.725C255.544 215.035 268.796 220.452 285.036 230.076C294.789 235.855 305.764 243.855 317.57 244.174C323.337 244.329 323.721 241.401 328.415 239.836" stroke="currentColor" stroke-width="3" stroke-linecap="round"/>
</svg>
