<svg viewBox="0 0 22 25" fill="currentColor" xmlns="http://www.w3.org/2000/svg">
<path d="M22 10.2521C19.8374 10.2573 17.7279 9.58668 15.9694 8.33512V17.0639C15.9688 18.6806 15.4718 20.2585 14.5449 21.5868C13.618 22.915 12.3053 23.9302 10.7824 24.4967C9.25955 25.0632 7.59903 25.1539 6.02291 24.7566C4.44679 24.3594 3.03019 23.4933 1.96254 22.274C0.894881 21.0547 0.22706 19.5403 0.0483709 17.9335C-0.130319 16.3266 0.18864 14.7038 0.962599 13.282C1.73656 11.8602 2.92862 10.7073 4.3794 9.97732C5.83018 9.24735 7.47052 8.97517 9.08108 9.19715V13.5874C8.34408 13.3569 7.55268 13.3639 6.81989 13.6073C6.0871 13.8507 5.4504 14.318 5.0007 14.9427C4.55101 15.5673 4.31132 16.3173 4.31588 17.0854C4.32043 17.8536 4.56898 18.6007 5.02604 19.22C5.48311 19.8394 6.1253 20.2993 6.86092 20.534C7.59655 20.7688 8.38798 20.7665 9.12219 20.5274C9.8564 20.2883 10.4959 19.8246 10.9492 19.2026C11.4026 18.5806 11.6467 17.8321 11.6467 17.0639V0H15.9694C15.9664 0.362953 15.9969 0.725412 16.0607 1.08279C16.2109 1.88059 16.5233 2.63954 16.9786 3.31321C17.4339 3.98688 18.0227 4.56111 18.7089 5.00078C19.6851 5.64259 20.8297 5.98467 22 5.98443V10.2521Z" />
</svg>
