<svg
  viewBox="0 0 85 90"
  fill="none"
  xmlns="http://www.w3.org/2000/svg">
  <path
    fill-rule="evenodd"
    clip-rule="evenodd"
    d="M72.5423 6.27678C75.8182 4.32523 77.7076 4.99589 78.4827 5.75883C79.3838 6.64567 80.1381 8.89914 78.7078 12.5357C78.3285 13.5002 77.966 14.3869 77.6488 15.1381C71.4951 28.4846 58.3534 56.7488 54.6503 63.8438C54.0115 65.0678 54.4859 66.578 55.7099 67.2168C56.9339 67.8557 58.4441 67.3813 59.0829 66.1573C62.8619 58.9168 76.0921 30.4561 82.2063 17.1949L82.2231 17.1586L82.2386 17.1217C82.5766 16.3223 82.9606 15.3835 83.3609 14.3658C85.1873 9.72209 84.878 5.03776 81.9901 2.19535C78.9763 -0.770976 74.3516 -0.621034 69.9833 1.98123C58.9524 8.55264 46.4016 21.7307 34.7274 36.2192C24.9045 37.2764 15.0655 39.4362 8.93493 41.1244C7.60376 41.491 6.8218 42.8672 7.18836 44.1984C7.55492 45.5296 8.9312 46.3115 10.2624 45.945C15.1554 44.5976 22.5344 42.9308 30.309 41.815C18.3711 57.232 7.50629 73.6409 0.361718 85.4429C-0.353309 86.6241 0.0245529 88.1612 1.2057 88.8762C2.38684 89.5913 3.92399 89.2134 4.63902 88.0323C12.0021 75.8693 23.3788 58.7327 35.7662 42.9469C36.2813 42.2905 36.7977 41.6369 37.3153 40.9867C41.5343 40.6039 45.6449 40.4609 49.3348 40.6794C53.5581 40.9295 57.0276 41.6432 59.4601 42.858C60.6953 43.475 62.1967 42.9737 62.8137 41.7385C63.4306 40.5033 62.9294 39.0018 61.6941 38.3849C58.3834 36.7314 54.1349 35.9549 49.6303 35.6881C47.0817 35.5372 44.3855 35.5463 41.6316 35.6753C52.2914 22.8393 63.1877 11.8496 72.5423 6.27678Z"
    fill="" />
  <style>
    path {
      fill: #0e4c9a;
    }
    @media (prefers-color-scheme: dark) {
      path {
        fill: #20a4ff;
      }
    }
  </style>
</svg>
